
        <svg xmlns="http://www.w3.org/2000/svg" xmlns:xlink="http://www.w3.org/1999/xlink" version="1.1" width="3172.3758817872504" height="730.873738777942" viewBox="0 0 3172.3758817872504 730.873738777942">
			
			<g transform="scale(8.618794089362524) translate(10, 10)">
				<defs id="SvgjsDefs1054"><linearGradient id="SvgjsLinearGradient1061"><stop id="SvgjsStop1062" stop-color="#7d141d" offset="0"/><stop id="SvgjsStop1063" stop-color="#ff1e27" offset="1"/></linearGradient><linearGradient id="SvgjsLinearGradient1064"><stop id="SvgjsStop1065" stop-color="#8f5e25" offset="0"/><stop id="SvgjsStop1066" stop-color="#fbf4a1" offset="0.5"/><stop id="SvgjsStop1067" stop-color="#8f5e25" offset="1"/></linearGradient><linearGradient id="SvgjsLinearGradient1068"><stop id="SvgjsStop1069" stop-color="#7d141d" offset="0"/><stop id="SvgjsStop1070" stop-color="#ff1e27" offset="1"/></linearGradient></defs><g id="SvgjsG1055" featureKey="nameLeftFeature-0" transform="matrix(1.088270672790016,0,0,1.088270672790016,11.517533016787317,7.425636594795152)" fill="#000"><path d="M27.08 20.44 c0.32 0 1.12 0.16 1.12 1.4 l0 3.16 c0 1.24 -0.8 1.36 -1.12 1.36 l-17.88 0 c-0.04 0 -0.08 12.28 -0.08 12.28 c0 1.24 -0.8 1.4 -1.12 1.4 l-3.68 0 c-0.32 0 -1.12 -0.16 -1.12 -1.4 l0.08 -15.44 c0.08 -0.36 0.24 -0.72 0.4 -1.04 c0.6 -0.96 1.6 -1.6 2.76 -1.68 z M27.28 7.039999999999999 c0.32 0 1.12 0.12 1.12 1.4 l0 3.16 c0 1.24 -0.8 1.36 -1.12 1.36 l-23 0 c-0.32 0 -1.08 -0.16 -1.08 -1.4 l0 -3.08 c0 -1.28 0.76 -1.44 1.08 -1.44 l23 0 z M61.968999999999994 32.84 c0.36 0 1.16 0.12 1.16 1.36 l0 4.4 c0 1.24 -0.8 1.36 -1.16 1.36 l-14.2 0 c-1.76 0 -3.24 -0.2 -4.48 -0.68 c-1.28 -0.44 -2.32 -1.16 -3.12 -2.2 c-0.76 -1 -1.36 -2.32 -1.72 -3.92 c-0.28 -1.32 -0.48 -2.92 -0.52 -4.8 l0 -0.2 l0.08 -5.04 c0.08 -0.36 0.24 -0.68 0.44 -1 c0.56 -1 1.56 -1.6 2.72 -1.68 l20.64 -0.04 c0.32 0 1.12 0.12 1.12 1.36 l0 3.16 c0 1.24 -0.8 1.4 -1.12 1.4 l-17.88 0 c-0.04 0 -0.08 2.88 -0.08 2.88 l0.08 0.68 c0.12 0.76 0.36 1.36 0.68 1.8 c0.32 0.4 0.68 0.68 1.2 0.88 c0.56 0.16 1.24 0.28 2.08 0.28 l14.08 0 z M62.009 6.960000000000001 c0.32 0 1.12 0.16 1.12 1.4 l0 3.16 c0 1.24 -0.8 1.4 -1.12 1.4 l-23 -0.04 c-0.32 0 -1.08 -0.12 -1.08 -1.36 l0 -3.12 c0 -1.28 0.76 -1.44 1.08 -1.44 l23 0 z M100.978 7.039999999999999 c0.32 0 1.12 0.12 1.12 1.4 l0 26.44 c0 1.96 -0.28 3.28 -0.84 4 c-0.56 0.76 -1.44 1.16 -2.6 1.16 l-2.92 0 c-0.56 0 -1 -0.04 -1.36 -0.12 c-0.4 -0.08 -0.76 -0.2 -1.08 -0.44 c-0.32 -0.2 -0.6 -0.48 -0.88 -0.88 c-0.28 -0.36 -0.6 -0.84 -0.92 -1.48 l-12.68 -22.48 c-0.08 -0.12 -0.12 -0.12 -0.12 -0.12 l-0.2 0 l0 24.12 c0 1.24 -0.76 1.4 -1.12 1.4 l-3.56 0 c-0.36 0 -1.16 -0.16 -1.16 -1.4 l0 -26.44 c0 -1.96 0.28 -3.28 0.84 -4.04 c0.56 -0.72 1.44 -1.12 2.6 -1.12 l3 0 c0.52 0 1 0.04 1.4 0.08 c0.44 0.08 0.8 0.24 1.12 0.48 c0.28 0.2 0.56 0.52 0.84 0.92 c0.28 0.36 0.56 0.84 0.88 1.44 l12.64 22.48 c0.04 0.12 0.08 0.12 0.12 0.12 l0.2 0 l0 -24.12 c0 -1.28 0.76 -1.4 1.12 -1.4 l3.56 0 z M138.707 7.039999999999999 c0.32 0 1.12 0.16 1.12 1.4 l0 3.12 c0 1.28 -0.8 1.4 -1.12 1.4 l-17 0 c-0.84 0 -1.56 0.12 -2.08 0.28 c-0.52 0.2 -0.88 0.48 -1.2 0.88 c-0.28 0.44 -0.52 1.04 -0.64 1.76 c-0.16 0.8 -0.24 1.8 -0.24 3 l0 9.28 c0 1.2 0.08 2.2 0.24 3 c0.12 0.76 0.36 1.36 0.64 1.76 c0.32 0.44 0.68 0.72 1.2 0.88 c0.52 0.2 1.24 0.28 2.08 0.28 l11.2 0 c0.44 0 0.76 -0.12 0.96 -0.44 c0.16 -0.24 0.36 -0.76 0.36 -2 l-0.04 -5.6 l-9.96 0 c-0.32 0 -1.12 -0.12 -1.12 -1.44 l0 -3.04 c0 -1.28 0.8 -1.44 1.12 -1.44 l14.16 0 c0.52 0 1.4 0.24 1.4 1.76 l0 10.72 c0 2.68 -0.4 4.56 -1.16 5.68 c-0.8 1.16 -1.96 1.76 -3.44 1.76 l-13.68 0 c-1.76 0 -3.28 -0.24 -4.52 -0.68 s-2.28 -1.2 -3.08 -2.2 c-0.8 -1.04 -1.4 -2.36 -1.76 -3.92 c-0.36 -1.6 -0.52 -3.52 -0.52 -5.76 l0 -7.92 c0 -2.2 0.16 -4.12 0.52 -5.68 c0.36 -1.6 0.96 -2.88 1.76 -3.92 c0.76 -1 1.84 -1.76 3.08 -2.24 c1.24 -0.44 2.76 -0.68 4.52 -0.68 l17.2 0 z"/></g><g id="SvgjsG1056" featureKey="inlineSymbolFeature-0" transform="matrix(0.7623581416606917,0,0,0.7623581416606917,151.58677150902554,-1.9055678220102172)" fill="#000"><path xmlns="http://www.w3.org/2000/svg" d="M65.532,53.661c2.473-2.341,2.081-5.645-0.869-7.341L59.1,43.118c-2.95-1.697-4.723-5.797-3.941-9.109l6.699-28.398  c0.781-3.312-0.602-4.108-3.073-1.767L24.467,36.339c-2.472,2.341-2.08,5.644,0.87,7.342l5.562,3.2  c2.949,1.698,4.724,5.798,3.943,9.109l-6.701,28.398c-0.78,3.312,0.602,4.107,3.074,1.767L65.532,53.661z"/></g><g id="SvgjsG1057" featureKey="nameRightFeature-0" transform="matrix(1.088270798286477,0,0,1.088270798286477,171.73748241987406,7.425635721339838)" fill="#000"><path d="M54.528999999999996 7.039999999999999 c0.36 0 1.16 0.12 1.16 1.36 l0 3.12 c0 1.32 -0.8 1.44 -1.16 1.44 l-10.28 0 l0 25.68 c0 1.24 -0.76 1.36 -1.12 1.36 l-3.68 0 c-0.32 0 -1.12 -0.12 -1.12 -1.36 l0 -25.68 l-10.28 0 c-0.36 0 -1.16 -0.12 -1.16 -1.44 l0 -3.12 c0 -1.24 0.8 -1.36 1.16 -1.36 l26.48 0 z M89.258 32.84 c0.36 0 1.16 0.12 1.16 1.36 l0 4.4 c0 1.24 -0.8 1.36 -1.16 1.36 l-14.2 0 c-1.76 0 -3.24 -0.2 -4.48 -0.68 c-1.28 -0.44 -2.32 -1.16 -3.12 -2.2 c-0.76 -1 -1.36 -2.32 -1.72 -3.92 c-0.28 -1.32 -0.48 -2.92 -0.52 -4.8 l0 -0.2 l0.08 -5.04 c0.08 -0.36 0.24 -0.68 0.44 -1 c0.56 -1 1.56 -1.6 2.72 -1.68 l20.64 -0.04 c0.32 0 1.12 0.12 1.12 1.36 l0 3.16 c0 1.24 -0.8 1.4 -1.12 1.4 l-17.88 0 c-0.04 0 -0.08 2.88 -0.08 2.88 l0.08 0.68 c0.12 0.76 0.36 1.36 0.68 1.8 c0.32 0.4 0.68 0.68 1.2 0.88 c0.56 0.16 1.24 0.28 2.08 0.28 l14.08 0 z M89.298 6.960000000000001 c0.32 0 1.12 0.16 1.12 1.4 l0 3.16 c0 1.24 -0.8 1.4 -1.12 1.4 l-23 -0.04 c-0.32 0 -1.08 -0.12 -1.08 -1.36 l0 -3.12 c0 -1.28 0.76 -1.44 1.08 -1.44 l23 0 z M124.387 7.039999999999999 c0.32 0 1.12 0.16 1.12 1.4 l0 3.08 c0 1.28 -0.8 1.44 -1.12 1.44 l-14.36 0 c-0.84 0 -1.56 0.08 -2.08 0.28 c-0.52 0.16 -0.88 0.44 -1.2 0.88 s-0.52 1 -0.68 1.76 c-0.12 0.76 -0.2 1.76 -0.2 2.96 l0 9.32 c0 1.2 0.08 2.2 0.2 3 c0.16 0.76 0.36 1.36 0.68 1.76 c0.32 0.44 0.68 0.72 1.2 0.88 c0.52 0.2 1.24 0.28 2.08 0.28 l14.36 0 c0.32 0 1.12 0.16 1.12 1.4 l0 3.16 c0 1.24 -0.8 1.4 -1.12 1.4 l-14.56 0 c-1.76 0 -3.28 -0.24 -4.52 -0.68 s-2.28 -1.2 -3.08 -2.2 c-0.8 -1.04 -1.4 -2.36 -1.76 -3.92 c-0.36 -1.6 -0.52 -3.52 -0.52 -5.76 l0 -7.92 c0 -2.2 0.16 -4.12 0.52 -5.68 c0.36 -1.6 0.96 -2.92 1.76 -3.92 c0.76 -1 1.8 -1.76 3.08 -2.24 c1.24 -0.44 2.76 -0.68 4.52 -0.68 l14.56 0 z M160.876 7.039999999999999 c0.36 0 1.16 0.16 1.16 1.4 l0 30.2 c0 1.24 -0.8 1.4 -1.16 1.4 l-3.68 0 c-0.32 0 -1.08 -0.16 -1.08 -1.4 l0 -12.32 l-15.16 0 l0 12.32 c0 1.24 -0.76 1.4 -1.12 1.4 l-3.64 0 c-0.36 0 -1.16 -0.16 -1.16 -1.4 l0 -30.2 c0 -1.24 0.8 -1.4 1.16 -1.4 l3.64 0 c0.36 0 1.12 0.16 1.12 1.4 l0 11.96 l15.16 0 l0 -11.96 c0 -1.24 0.76 -1.4 1.08 -1.4 l3.68 0 z"/></g>
			</g>
		</svg>
	